# xmcd CD database file
#
# Track frame offsets:
#	187
#	20452
#	41007
#	69650
#	100162
#	110587
#	134362
#	176020
#	219675
#	251190
#	268357
#	291490
#
# Disc length: 4293 seconds
#
# Revision: 0
# Processed by: cddbd v1.5.2PL0 Copyright (c) Steve Scherf et al.
# Submitted via: CDex 1.70beta1
#
DISCID=c510c30c
DTITLE=Wes Montgomery - Artistry In Jazz CD
DYEAR=1987
DGENRE=Jazz
TTITLE0=Airegin
TTITLE1=Mister Walker
TTITLE2=Gone With The Wind
TTITLE3=Back To Back
TTITLE4=While We're Young
TTITLE5=S.K.J
TTITLE6=Full House
TTITLE7=Blue'n Boogie
TTITLE8=Come Rain Or Come Shine
TTITLE9=Days Of Wine And Roses
TTITLE10=Canadian Sunset
TTITLE11=Fried Pies
EXTD=YEAR: 1987
EXTT0=
EXTT1=
EXTT2=
EXTT3=
EXTT4=
EXTT5=
EXTT6=
EXTT7=
EXTT8=
EXTT9=
EXTT10=
EXTT11=
PLAYORDER=
